# File created by Blade
# Date/Time:  Thu Sep 25 17:33:50 2014
# Frame Rate: 120.000 fps
#------------------------------------------------------
:FULLY-SPECIFIED
:DEGREES
2153
root -4.023715 31.993358 -0.811013 13.777695 -12.234731 7.998868
Spine -4.673886 -6.684258 5.623838
Head -16.782417 27.049485 2.702951
LeftShoulder 2.120873 10.663966 15.291896
LeftArm 55.723124 27.452721 -54.238375
LeftForeArm 36.234182 -0.000000 113.894975
LeftHand -29.139004 -0.000000 31.429952
LeftHandThumb1 -26.253704 0.000000 33.147579
RightShoulder -18.260880 12.470295 -22.934995
RightArm 8.575356 -28.510970 77.775551
RightForeArm -23.418134 -0.000000 121.731548
RightHand -0.151069 -0.000000 -20.625548
RightHandThumb1 -24.326973 -0.000000 -32.862282
LeftUpLeg -12.944301 13.126968 -7.725190
LeftLeg 12.736762 -0.000000 -0.000000
LeftFoot -24.310989 18.348392 -26.050127
LeftToeBase 5.439146 -0.000000 -0.000000
RightUpLeg -38.048607 -4.512219 -11.958125
RightLeg 45.879845 -0.000000 -0.000000
RightFoot -13.704515 -9.891118 4.866339
RightToeBase -0.379928 -0.000000 0.000000
2154
root -3.955569 32.017899 -0.885082 13.764409 -12.236365 8.038936
Spine -4.622436 -6.688881 4.851003
Head -16.869450 26.906904 3.446488
LeftShoulder 2.287244 10.607779 15.615913
LeftArm 55.952421 27.338069 -54.004696
LeftForeArm 36.157997 0.000000 113.937662
LeftHand -29.083845 -0.000000 31.450412
LeftHandThumb1 -26.253704 0.000000 33.147579
RightShoulder -18.189689 12.688876 -22.738634
RightArm 8.790415 -28.824422 78.270293
RightForeArm -23.722188 -0.000000 121.776333
RightHand -0.111101 -0.000000 -20.467115
RightHandThumb1 -24.326973 -0.000000 -32.862282
LeftUpLeg -12.900259 12.464695 -7.795604
LeftLeg 12.376762 -0.000000 -0.000000
LeftFoot -24.315674 18.923888 -26.259431
LeftToeBase 5.420381 -0.000000 -0.000000
RightUpLeg -38.649574 -4.080312 -12.260297
RightLeg 46.680439 -0.000000 -0.000000
RightFoot -13.181852 -9.884662 4.743247
RightToeBase 0.393797 -0.000000 -0.000000
2155
root -3.883738 32.045291 -0.954661 13.736735 -12.220618 8.103358
Spine -4.590900 -6.728114 4.139621
Head -16.876230 26.750106 4.064594
LeftShoulder 2.433956 10.507356 15.869228
LeftArm 56.173931 27.298234 -53.742406
LeftForeArm 35.995178 0.000000 113.974255
LeftHand -29.116305 -0.000000 31.517567
LeftHandThumb1 -26.253704 0.000000 33.147579
RightShoulder -17.992231 12.907652 -22.709633
RightArm 8.888936 -29.123136 78.964253
RightForeArm -24.336168 -0.000000 121.800980
RightHand -0.235860 0.000000 -20.757732
RightHandThumb1 -24.326973 -0.000000 -32.862282
LeftUpLeg -12.831695 11.843308 -7.898451
LeftLeg 12.000228 -0.000000 -0.000000
LeftFoot -24.266143 19.477572 -26.410028
LeftToeBase 5.544839 -0.000000 -0.000000
RightUpLeg -39.173145 -3.719065 -12.547466
RightLeg 47.373603 -0.000000 -0.000000
RightFoot -12.698787 -9.799585 4.730676
RightToeBase 0.742283 -0.000000 -0.000000
2156
root -3.828118 32.070453 -1.017208 13.683779 -12.199212 8.042404
Spine -4.535392 -6.544382 3.612332
Head -16.788944 26.395681 4.508895
LeftShoulder 2.713308 10.323834 16.053784
LeftArm 56.429038 27.305330 -53.457649
LeftForeArm 35.882701 -0.000000 113.868108
LeftHand -28.994661 -0.000000 31.685648
LeftHandThumb1 -26.253704 0.000000 33.147579
RightShoulder -17.890425 13.105144 -22.734799
RightArm 8.940166 -29.334437 79.545145
RightForeArm -24.511269 -0.000000 121.898040
RightHand -0.102793 0.000000 -20.663864
RightHandThumb1 -24.326973 -0.000000 -32.862282
LeftUpLeg -12.689729 11.418869 -7.862858
LeftLeg 11.602412 -0.000000 -0.000000
LeftFoot -24.206345 19.865557 -26.547441
LeftToeBase 5.705946 -0.000000 -0.000000
RightUpLeg -39.553982 -3.317961 -12.696741
RightLeg 47.972117 -0.000000 -0.000000
RightFoot -12.478278 -9.506885 4.732479
RightToeBase 1.216941 -0.000000 -0.000000
2157
root -3.772499 32.096249 -1.073297 13.609293 -12.184646 7.982034
Spine -4.457882 -6.436238 3.119742
Head -16.683038 26.129322 4.917457
LeftShoulder 2.893646 10.169143 16.193940
LeftArm 56.751082 27.351551 -53.140752
LeftForeArm 35.615762 -0.000000 113.813886
LeftHand -29.054572 -0.000000 31.723697
LeftHandThumb1 -26.253704 0.000000 33.147579
RightShoulder -17.681161 13.392388 -22.781675
RightArm 8.976430 -29.649326 79.981830
RightForeArm -24.854643 -0.000000 122.030449
RightHand -0.244213 -0.000000 -20.804401
RightHandThumb1 -24.326973 -0.000000 -32.862282
LeftUpLeg -12.489926 11.099701 -7.844579
LeftLeg 11.149050 -0.000000 -0.000000
LeftFoot -24.094549 20.259453 -26.587984
LeftToeBase 5.785083 -0.000000 -0.000000
RightUpLeg -39.838208 -2.805777 -12.884113
RightLeg 48.536457 -0.000000 -0.000000
RightFoot -12.574507 -8.841405 5.083899
RightToeBase 1.647800 -0.000000 -0.000000
